<?xml version="1.0" encoding="UTF-8"?><svg id="Layer_1" xmlns="http://www.w3.org/2000/svg" xmlns:xlink="http://www.w3.org/1999/xlink" viewBox="0 0 241 237"><defs><style>.cls-1{fill:url(#linear-gradient);}.cls-2{fill:url(#linear-gradient-3);}.cls-3{fill:url(#linear-gradient-4);}.cls-4{fill:url(#linear-gradient-2);}.cls-5{fill:url(#linear-gradient-5);}</style><linearGradient id="linear-gradient" x1="-3.07" y1="122.04" x2="89.01" y2="29.96" gradientTransform="matrix(1, 0, 0, 1, 0, 0)" gradientUnits="userSpaceOnUse"><stop offset="0" stop-color="#fa923c"/><stop offset="1" stop-color="#fbcd15"/></linearGradient><linearGradient id="linear-gradient-2" x1="88.21" y1="80.79" x2="152.79" y2="16.21" gradientTransform="matrix(1, 0, 0, 1, 0, 0)" gradientUnits="userSpaceOnUse"><stop offset="0" stop-color="#ed4899"/><stop offset="1" stop-color="#fa923c"/></linearGradient><linearGradient id="linear-gradient-3" x1="156.25" y1="110.3" x2="239.43" y2="27.12" gradientTransform="matrix(1, 0, 0, 1, 0, 0)" gradientUnits="userSpaceOnUse"><stop offset="0" stop-color="#bfdbfe"/><stop offset="1" stop-color="#dcebfe"/></linearGradient><linearGradient id="linear-gradient-4" x1="12.43" y1="220.54" x2="73.51" y2="159.46" gradientTransform="matrix(1, 0, 0, 1, 0, 0)" gradientUnits="userSpaceOnUse"><stop offset="0" stop-color="#2dd5bf"/><stop offset=".99" stop-color="#a3e636"/></linearGradient><linearGradient id="linear-gradient-5" x1="12.51" y1="49.18" x2="190.86" y2="227.53" gradientTransform="matrix(1, 0, 0, 1, 0, 0)" gradientUnits="userSpaceOnUse"><stop offset="0" stop-color="#29abe2" stop-opacity="0"/><stop offset=".09" stop-color="#29ace2" stop-opacity=".05"/><stop offset=".25" stop-color="#2bb1e4" stop-opacity=".17"/><stop offset=".47" stop-color="#2dbae6" stop-opacity=".38"/><stop offset=".72" stop-color="#31c5e9" stop-opacity=".66"/><stop offset="1" stop-color="#36d3ee"/></linearGradient></defs><rect class="cls-1" x="11" y="11" width="63.94" height="130" rx="8.35" ry="8.35"/><rect class="cls-4" x="88.53" y="11" width="63.94" height="75" rx="8.35" ry="8.35"/><path class="cls-2" d="M201.65,11h-10c-.55,0-1,.45-1,1s.45,1,1,1h10c.55,0,1-.45,1-1s-.45-1-1-1h0Zm-20,0h-7.73v.02h-.21v.02h-.16v.02h-.14v.02h-.1l-.03,.02h-.09l-.03,.02h-.03s-.1,.02-.15,.03h0c-.44,.08-.87,.19-1.28,.33-.52,.18-.8,.75-.62,1.27,.14,.41,.53,.68,.95,.68,.11,0,.22-.02,.32-.05,.66-.23,1.36-.34,2.07-.34h7.23c.55,0,1-.45,1-1s-.45-1-1-1h0Zm-14.58,7.04c-.53,0-.97,.42-1,.95,0,.08,0,.17,0,.25h0v.02h0v.02h0v.02h0v.02h0v.02h0v.02h0v9.64c0,.55,.45,1,1,1s1-.45,1-1v-9.64c0-.09,0-.18,0-.27,.02-.55-.41-1.02-.96-1.04h-.04Zm0,19.96c-.55,0-1,.45-1,1v10c0,.55,.45,1,1,1s1-.45,1-1v-10c0-.55-.45-1-1-1h0Zm0,20c-.55,0-1,.45-1,1v10c0,.55,.45,1,1,1s1-.45,1-1v-10c0-.55-.45-1-1-1h0Zm0,20c-.55,0-1,.45-1,1v10c0,.55,.45,1,1,1s1-.45,1-1v-10c0-.55-.45-1-1-1h0Zm0,20c-.55,0-1,.45-1,1v10c0,.55,.45,1,1,1s1-.45,1-1v-10c0-.55-.45-1-1-1h0Zm.29,19.69c-.09,0-.18,.01-.28,.04-.53,.15-.84,.7-.68,1.23,.12,.43,.28,.84,.47,1.24h0v.02h0v.02h.01v.02h0v.02h0v.03h0v.02h.01v.02h0v.02h0v.02h0v.02h0v.02h0v.02h0v.02h0v.02h0v.02h0v.02h0v.02h0v.02h0v.02h0v.02h0v.02h0v.02h0v.02h0v.02h0v.02h0v.02h0v.02h0v.02h0v.02h.01v.02h0v.02h0v.02h0v.02h0v.02h0v.02h0v.02h.01v.02h0v.02h.01v.02h0v.02h0v.02h0v.02h0v.02h0v.02h0v.02h0v.02h.01v.02h0v.02h.01v.02h0v.02h.02v.02h.01v.02h.01v.02h.01v.02h.01v.02h.01v.02h.02v.02h.01v.02h.01v.02h.01v.02h.01v.02h.01v.02h.01v.02h.02v.02h.01v.02h.01v.02h.01v.02h.01v.02h.01v.02h.01v.02h.02v.02h.01v.02h.01v.02h.01v.02h.01v.02h.02v.02h.01v.02h.01v.02h.01l.02,.03h0v.02h.01v.02h.02v.02h.01l.02,.04h0v.02h.01v.02h.02v.02h.01v.02h.02v.02h0v.02h.01v.02h.01v.02h.01l.02,.03h.01v.02h0v.02h.01v.02h.01v.02h.02v.02h0v.02h.02v.02h.01v.03h.02v.02h.01v.02h.02v.02h.01v.03h.02v.02h.01v.02h.02v.02h.01v.02h.01v.02h.02v.02h.01v.02h.02v.02h.01v.02h.02v.02h0v.02h.02v.02h.01v.02h.02v.02h.01v.02h.01v.02h.02v.02h.01v.02h.02v.02h.02v.02h.02v.02h.01v.02h.02v.02h.02v.02h.02v.02h.02v.02h.02v.02h.02v.02h.02v.02h.02v.02h.02v.02h.02v.02h.02v.02h.02v.02h.02v.02h.02v.02h.02v.02h.02v.02h.02v.02h.02v.02h.02v.02h.02v.02h.02v.02h.02v.02h.02v.02h.02v.02h.02v.02h.03v.03h.03v.03h.02v.02h.03v.02h.03l.03,.04h0c1.27,1.08,2.87,1.78,4.62,1.94,.03,0,.06,0,.09,0,.51,0,.95-.39,.99-.91,.05-.55-.35-1.04-.9-1.09-2.58-.24-4.8-2.07-5.52-4.56-.13-.44-.53-.72-.96-.72h0Zm26.29,5.31h-10c-.55,0-1,.45-1,1s.45,1,1,1h10c.55,0,1-.45,1-1s-.45-1-1-1h0Zm20,0h-10c-.55,0-1,.45-1,1s.45,1,1,1h10c.55,0,1-.45,1-1s-.45-1-1-1h0Zm15.29-6.36c-.49,0-.92,.36-.99,.87-.35,2.57-2.27,4.7-4.79,5.31-.54,.13-.87,.67-.74,1.21,.11,.46,.52,.76,.97,.76,.08,0,.15,0,.23-.03,.41-.1,.8-.23,1.18-.38h.04l.02-.02h.04v-.02h.04v-.02h.04v-.02h.04v-.02h.04v-.02h.04v-.02h.04v-.02h.03v-.02h.04v-.02h.03l.02-.02h.02l.02-.02h.02c1.63-.8,2.97-2.1,3.8-3.71h0l.03-.06h0v-.02h0l.03-.06h0v-.02h0v-.02h0v-.02h0v-.02h0v-.02h0v-.03h.01v-.02h0v-.02h0v-.02h0v-.02h0v-.03h.01v-.02h0v-.02h0v-.02h0v-.02h0l.02-.04h0l.02-.04h0v-.02h0v-.02h0v-.02h0l.03-.06h0v-.02h0l.03-.06h0v-.02h0v-.02h0l.03-.08h0v-.02h0v-.02h0v-.02h0v-.02h0c.22-.58,.37-1.18,.46-1.81,.07-.55-.31-1.05-.86-1.12-.05,0-.09,0-.14,0h0Zm.07-19.86c-.55,0-1,.45-1,1v10c0,.55,.45,1,1,1s1-.45,1-1v-10c0-.55-.45-1-1-1h0Zm0-20c-.55,0-1,.45-1,1v10c0,.55,.45,1,1,1s1-.45,1-1v-10c0-.55-.45-1-1-1h0Zm0-20c-.55,0-1,.45-1,1v10c0,.55,.45,1,1,1s1-.45,1-1v-10c0-.55-.45-1-1-1h0Zm0-20c-.55,0-1,.45-1,1v10c0,.55,.45,1,1,1s1-.45,1-1v-10c0-.55-.45-1-1-1h0Zm-.13-19.8c-.06,0-.12,0-.19,.02-.54,.1-.9,.63-.8,1.17,.07,.39,.11,.79,.11,1.19v8.43c0,.55,.45,1,1,1s1-.45,1-1v-8.43h0v-.02h0v-.03h0v-.03h0v-.02h0v-.03h0v-.03h0v-.03h0v-.02h0v-.03h0v-.03h0v-.02h0v-.02h0c-.02-.44-.06-.86-.14-1.27-.09-.48-.51-.81-.98-.81h0Zm-7.23-5.97h-10c-.55,0-1,.45-1,1s.45,1,1,1h10c.39,0,.79,.04,1.17,.11,.06,.01,.12,.02,.18,.02,.47,0,.89-.34,.98-.82,.1-.54-.26-1.06-.8-1.17-.12-.02-.24-.04-.36-.06h-.1v-.02h-.13v-.02h-.15v-.02h-.18v-.02h-.28v-.02h-.33Z"/><rect class="cls-3" x="11" y="156" width="63.94" height="68" rx="8.35" ry="8.35"/><path class="cls-5" d="M26.67,39.43c9.46-.07,17.6-5.28,25.35-10.13,1.53-.96,3.06-1.91,4.65-2.75,.4-.21,.81-.42,1.23-.62,.21-.1,1.26-.51,.46-.22,.67-.25,1.33-.49,2.02-.64,.17-.04,.35-.05,.52-.1-.82,.23-.5,.03-.29,.05,.29,.02,.68,.02,.97,0,.3-.03,.2,.28-.33-.05,.05,.03,.4,.11,.45,.1,.11-.02,.26,.11,.36,.12-.09,0-.49-.4-.09,0,.09,.09,.29,.2,.4,.26-.08-.04-.51-.5-.22-.16,.19,.22,.41,.43,.61,.64-.6-.64,.17,.3,.31,.55,.16,.29,.27,.61,.44,.89-.47-.76-.1-.22,.01,.12,.07,.23,.12,.46,.18,.69,.24,.87,.03-.44,.03,.09,0,.27,.04,.54,.03,.81,0,.06-.04,.74-.05,.73-.06,0,.18-.93-.03,0-.05,.22-.11,.44-.18,.66-.13,.42-.39,.91-.04,.19-.24,.48-.46,.96-.74,1.41-.13,.22-.27,.43-.41,.64s-.84,1.03-.19,.28c-.83,.95-1.66,1.88-2.59,2.74-.46,.42-.93,.83-1.41,1.23-.3,.25-.6,.49-.9,.73-.1,.08-.21,.16-.31,.24,.69-.55-.05,.03-.19,.14-1.2,.9-2.43,1.76-3.67,2.59-2.68,1.8-5.43,3.5-8.16,5.22-5.25,3.3-10.75,6.64-15.09,11.11-3.71,3.83-6.49,9.09-4.55,14.48,1.83,5.11,6.04,8.83,11.67,7.94,4.96-.78,9.34-4.47,12.99-7.66,4.89-4.26,9.34-9,13.87-13.63,2.37-2.42,4.74-4.82,7.2-7.14,1.14-1.07,2.29-2.13,3.47-3.15,.55-.48,1.11-.95,1.67-1.41,.26-.21,.52-.43,.79-.64,.16-.12,.31-.25,.47-.37-.63,.5-.13,.1,.02-.01,2.09-1.56,4.25-2.96,6.63-4.04-.94,.43-.07,.04,.14-.04,.23-.09,.47-.17,.71-.24,.55-.17,1.1-.29,1.66-.41,.74-.16-.75,.03,.01,0,.22-.01,.44-.03,.66-.04s.44,0,.65,0c.13,0,.26,.03,.39,.03,.51,0-.83-.19-.22-.03,.44,.11,.87,.21,1.3,.34,.7,.2-.63-.35,0,0,.23,.13,.48,.24,.7,.38,.19,.12,.42,.35,.63,.42,.31,.1-.58-.52-.21-.17,.1,.1,.21,.18,.32,.27,.34,.3,.66,.62,.96,.95,.13,.14,.24,.31,.38,.44,.34,.35-.43-.67-.19-.25,.05,.1,.13,.18,.19,.27,.21,.34,.4,.68,.6,1.03,.37,.66-.13-.43-.05-.14,.05,.16,.12,.32,.18,.49,.13,.39,.18,.8,.29,1.2,.06,.22-.06-.92-.03-.18,0,.17,.02,.34,.03,.52,.01,.41-.04,.81-.05,1.21-.01,.53,.18-.91,0-.1-.04,.18-.07,.36-.11,.55-.09,.41-.21,.82-.34,1.22-.07,.21-.14,.42-.22,.62-.04,.1-.08,.19-.11,.28-.17,.49-.15-.11,.11-.26-.24,.14-.46,1-.61,1.28-.47,.91-1,1.78-1.57,2.63-.28,.41-.56,.82-.86,1.23-.18,.25-.37,.49-.56,.74,.51-.69,0-.01-.22,.27-.75,.94-1.54,1.85-2.35,2.74-1.82,2-3.74,3.9-5.72,5.74-9.36,8.72-19.69,16.33-29.68,24.31-4.81,3.84-9.59,7.74-14.11,11.92-3.74,3.46-7.38,7.14-10.25,11.37-2.09,3.07-3.9,6.85-3.51,10.67,.43,4.15,3.32,7.71,7.1,9.4,4.57,2.04,9.42,.92,13.72-1.26,5.04-2.56,9.44-6.46,13.5-10.34,9.78-9.36,18.23-20,27.46-29.89,2.11-2.26,4.26-4.48,6.51-6.61,.99-.94,1.99-1.85,3.03-2.74,.47-.4,.95-.8,1.44-1.19,.22-.18,.45-.35,.67-.53-.77,.61,.11-.08,.32-.23,.91-.67,1.85-1.3,2.83-1.87,.42-.25,.85-.48,1.29-.7,.22-.11,.44-.21,.66-.31,.64-.31-.74,.25,.11-.04,.38-.13,.76-.27,1.15-.38,.22-.06,.45-.11,.67-.16,.07-.01,.15-.03,.22-.04,.61-.14,.02,.22-.25,.03,.14,.1,.84-.06,1.06-.05,.17,0,.35,.04,.51,.03,.47-.02-.84-.19-.39-.05,.11,.03,.23,.04,.35,.07,.18,.05,.36,.1,.54,.14,.06,.02,.13,.05,.19,.06,.45,.11-.14,.21-.34-.15,.1,.18,.8,.43,1,.55,.68,.4-.41-.4-.04-.05,.15,.14,.31,.27,.46,.42,.14,.14,.28,.28,.41,.43,.07,.08,.14,.17,.21,.25,.28,.3-.14,.21-.22-.29,.03,.23,.46,.66,.58,.88,.09,.16,.17,.32,.26,.48,.03,.06,.05,.12,.09,.18,.31,.54-.21-.69-.11-.27,.16,.62,.29,1.53,.55,2.1-.16-.37-.07-.82-.04-.19,0,.17,.02,.34,.03,.52,.01,.41,0,.82-.02,1.23-.01,.2-.04,.4-.06,.6-.05,.68,.16-.82,.02-.12-.09,.42-.15,.85-.25,1.27-.21,.9-.49,1.79-.82,2.66-.08,.21-.16,.42-.24,.63-.05,.13-.11,.25-.15,.38-.19,.5,.29-.6,.11-.27-.26,.48-.45,1.01-.69,1.5-2.18,4.5-5.09,8.63-8.11,12.6-.12,.16-.24,.31-.36,.47,.04-.06,.43-.55,.11-.14-.23,.29-.45,.58-.68,.87-.48,.62-.97,1.23-1.47,1.84-.98,1.21-1.97,2.4-2.97,3.59-2.07,2.45-4.19,4.87-6.33,7.26-9.47,10.59-19.38,20.79-28.84,31.39-8.51,9.54-17.14,19.46-23.38,30.69-4.39,7.91-8.25,18.07-3.6,26.73,1.88,3.5,5.11,6.58,8.99,7.69s7.58,.13,11-1.49c3.98-1.9,7.48-4.86,10.65-7.88,3.97-3.79,7.56-7.98,10.98-12.27,8.42-10.54,15.96-21.76,23.45-32.96s14.16-21.52,21.87-31.83c.4-.54,.81-1.08,1.22-1.62,.21-.28,.42-.55,.63-.83-.57,.74,.19-.24,.33-.42,.81-1.03,1.63-2.06,2.46-3.07,1.47-1.78,2.99-3.52,4.59-5.18,1.37-1.43,2.82-2.76,4.34-4.02,.54-.44-.61,.44-.04,.03,.16-.11,.31-.23,.46-.34,.36-.26,.72-.5,1.09-.73,.59-.37,1.21-.67,1.83-.99,.55-.28-.85,.3-.13,.06,.14-.05,.27-.1,.41-.15,.29-.1,.59-.17,.89-.24,.14-.04,.3-.03,.43-.08-.31,.1-.88,.05-.3,.05,.27,0,.55,0,.82,0,.61,0-.53-.12-.36-.06,.12,.04,.27,.04,.39,.08s.26,.08,.38,.11c.62,.15-.29-.15-.24-.12,.2,.14,.45,.24,.66,.36,.16,.09,.52,.45,.1,.05-.47-.45,.11,.1,.23,.21,.05,.05,.67,.69,.66,.7-.17,.13-.5-.77-.24-.31,.03,.05,.08,.1,.11,.16,.1,.16,.2,.32,.29,.48,.03,.05,.23,.51,.25,.51-.12,.01-.32-.93-.09-.18,.1,.34,.21,.68,.28,1.04,.03,.15,.02,.36,.09,.5-.35-.75-.07-.6-.03-.07,.03,.4,.03,.8,.02,1.2s-.06,.81-.09,1.21c-.05,.55,.16-.88,0-.02-.05,.25-.09,.5-.14,.74-.41,2.03-1.14,3.95-1.88,5.87-.22,.56,.3-.68,.05-.12-.07,.15-.13,.3-.19,.45-.11,.25-.22,.51-.34,.76-.26,.57-.53,1.14-.8,1.7-.59,1.2-1.2,2.38-1.84,3.55-2.91,5.35-6.23,10.48-9.59,15.56-7.49,11.3-15.46,22.32-22.28,34.05-2.99,5.15-5.78,10.47-7.81,16.07-1.63,4.49-2.73,9.33-2.04,14.12,1.18,8.19,9.84,14.41,17.98,12.08,3.86-1.11,7.15-3.74,9.89-6.6,3.46-3.62,6.33-7.81,8.95-12.07,6.6-10.73,11.82-22.3,17.01-33.76,5.58-12.33,10.93-24.77,17.03-36.86,2.64-5.24,5.43-10.43,8.6-15.38,.69-1.07,1.39-2.13,2.12-3.18,.34-.49,.69-.97,1.04-1.45,.16-.22,.33-.44,.49-.67,.1-.13,.2-.26,.3-.39,.35-.47-.41,.51-.07,.09,1.38-1.7,2.78-3.37,4.37-4.88,.33-.31,.66-.61,1-.9,.2-.17,.4-.34,.6-.5,.07-.05,.13-.11,.2-.16,.55-.46-.51,.35-.11,.08,.72-.48,1.4-1,2.15-1.42,.34-.19,.7-.37,1.05-.54,.71-.35,.07,.14-.11,.04,.07,.04,.51-.2,.6-.23,.36-.13,.73-.24,1.11-.33,.17-.04,.33-.08,.5-.11,.52-.1,.69,.12-.09,0,.67,.11,1.53-.06,2.22-.03,.66,.03-.84-.17-.19-.03,.17,.04,.34,.06,.51,.1,.41,.09,.82,.21,1.22,.35,.07,.02,.49,.21,.51,.19-.1,.1-.81-.38-.31-.13,.07,.03,.14,.06,.2,.09,.4,.2,.8,.41,1.19,.64,.1,.06,1.05,.79,1.12,.76-.14,.07-.64-.55-.22-.16,.06,.05,.13,.1,.19,.16,.18,.16,.36,.32,.54,.49,.31,.3,.57,.64,.87,.95,.16,.16-.47-.69-.05-.06,.13,.19,.26,.37,.38,.57,.22,.36,.39,.73,.59,1.1,.31,.59-.25-.74-.04-.09,.07,.22,.16,.43,.23,.65,.12,.37,.22,.74,.3,1.12,.05,.23,.08,.47,.13,.7,.14,.66-.06-.85,0,.04s.1,1.81,.05,2.72c-.03,.47-.09,.94-.13,1.4-.05,.56,.13-.8,.03-.25-.02,.09-.03,.18-.04,.28-.05,.28-.09,.56-.14,.84-.2,1.08-.47,2.15-.77,3.2-.33,1.14-.71,2.27-1.13,3.39-.2,.53-.41,1.07-.62,1.6-.09,.22-.57,1.34-.17,.42-.14,.33-.28,.66-.43,.99-4.96,11.22-11.97,21.52-18.68,31.75-6.74,10.28-13.84,20.54-19.1,31.68-3.38,7.15-7.73,17.65-2.29,24.92,3.05,4.07,8.15,5.89,13.07,6.34,5.67,.52,10.99-1.93,14.84-6.01,4.29-4.54,6.97-10.36,9.29-16.09,2.5-6.16,4.49-12.52,6.75-18.77,.54-1.49,1.09-2.97,1.66-4.44,.27-.7,.56-1.39,.84-2.08s-.27,.61,.02-.06c.06-.13,.11-.26,.16-.38,.16-.38,.33-.75,.5-1.13,1.14-2.52,2.43-5.01,4.03-7.28,.17-.23,.34-.46,.51-.69-.56,.78,0,0,.16-.18,.41-.5,.85-.98,1.3-1.43,.37-.36,.76-.7,1.15-1.04,.58-.51-.51,.33,.11-.08,.27-.18,.53-.36,.8-.53,.44-.27,.9-.47,1.35-.71-.91,.47-.17,.07,.09-.02,.27-.1,.55-.18,.83-.25,.26-.07,.52-.12,.79-.17,.87-.18-.72,0,.31-.03,.36-.01,.72-.04,1.09-.02,.21,0,.42,.03,.63,.04-.44-.02-.42-.08,0,.02,.32,.08,.64,.17,.96,.26,.2,.06,.74,.36,0-.02,.14,.07,.3,.13,.44,.21,.31,.18,.6,.38,.91,.56,.43,.25-.07-.05-.14-.11,.15,.13,.3,.26,.45,.39,.25,.23,.47,.48,.71,.73,.11,.12,.52,.68,.06,.04,.11,.14,.21,.29,.31,.44,.45,.65,.82,1.35,1.16,2.06,0,.01,.32,.73,.14,.3s.12,.32,.12,.32c.14,.4,.28,.79,.41,1.2,.29,.94,.53,1.9,.71,2.87,.09,.47,.17,.94,.24,1.41,.15,.94-.05-.59,.05,.37,.02,.2,.04,.4,.07,.6,.12,1.14,.18,2.29,.21,3.43,.24,10.1-2.23,20.37-6.4,29.69-.66,1.48-.43,3.22,1.08,4.1,1.28,.75,3.44,.41,4.1-1.08,4.56-10.19,7.49-21.49,7.22-32.72-.18-7.46-1.94-17.46-9.89-20.45-5.5-2.07-11.46,.67-15.13,4.82-3.98,4.49-6.38,10.18-8.52,15.71-2.38,6.15-4.33,12.45-6.63,18.63-.57,1.54-1.17,3.07-1.8,4.59-.05,.13-.35,.83-.04,.09-.06,.13-.11,.27-.17,.4-.17,.4-.34,.8-.52,1.19-.32,.71-.65,1.42-.99,2.12-1.27,2.62-2.72,5.12-4.46,7.46,.55-.74-.08,.09-.21,.25-.19,.23-.39,.46-.58,.68-.47,.52-.95,1.03-1.47,1.5-.21,.19-.42,.38-.64,.57-.16,.14-.98,.74-.18,.16-.49,.36-.98,.71-1.51,1.02s-1.06,.55-1.6,.82c.89-.45,.03-.02-.19,.06-.31,.11-.62,.21-.94,.3-.29,.08-.59,.15-.89,.22-.25,.05-1.33,.18-.29,.07-.64,.06-1.27,.12-1.92,.12-.68,0-1.35-.06-2.03-.13,.81,.08-.03-.01-.36-.07-.4-.08-.8-.16-1.19-.26-.6-.15-1.2-.33-1.79-.53-.25-.08-.49-.18-.73-.27-.69-.25,.67,.33-.16-.07-.51-.25-2.12-.83-2.34-1.39-.02-.05,.64,.56,.33,.25-.08-.08-.18-.14-.26-.22-.14-.13-.28-.25-.41-.38s-.26-.26-.39-.4c-.11-.12-.68-.77-.26-.28s-.05-.08-.14-.22c-.1-.15-.19-.3-.28-.45-.11-.19-.37-.97-.53-1.04,.26,.11,.29,.8,.14,.32-.03-.1-.08-.2-.11-.3-.06-.17-.11-.34-.16-.52-.11-.39-.19-.79-.27-1.18-.17-.83,.04,.62,0,.07-.01-.21-.04-.42-.06-.63-.03-.44-.04-.88-.03-1.32s.03-.87,.07-1.31c.01-.14,.14-.6,.08-.71,.11,.19-.12,.78-.05,.41,.03-.18,.05-.35,.08-.53,.36-2.14,.98-4.23,1.73-6.27,.19-.51,.38-1.02,.59-1.53,.1-.26,.21-.52,.32-.78,.23-.58-.29,.67-.04,.09,.08-.18,.16-.37,.24-.56,.52-1.18,1.06-2.34,1.63-3.5,5.53-11.21,12.73-21.56,19.55-32s13.74-20.78,18.49-32.23c3.17-7.63,5.83-18.07-.94-24.63-2.76-2.68-6.71-4.5-10.62-4.25s-7.52,2.27-10.55,4.84c-3.59,3.04-6.48,6.92-9.1,10.8-3.18,4.71-5.94,9.7-8.56,14.74-6.2,11.97-11.56,24.35-17.09,36.64s-10.55,23.53-17.1,34.61c-1.35,2.28-2.76,4.53-4.28,6.7-.34,.49-.68,.97-1.03,1.45-.16,.22-.33,.44-.49,.67-.1,.13-.2,.26-.3,.39-.34,.47,.41-.52,.07-.09-.71,.89-1.42,1.77-2.17,2.62-.7,.78-1.42,1.54-2.18,2.26-.34,.32-.69,.64-1.04,.95-.18,.16-.36,.31-.55,.46-.07,.05-.13,.11-.2,.16-.55,.46,.51-.36,.11-.08-.73,.5-1.42,1.02-2.19,1.45-.33,.18-.66,.35-1,.52-.54,.27-.35,.08,.07-.02-.2,.05-.4,.16-.6,.23-.35,.12-.7,.23-1.05,.32-.17,.04-.33,.08-.5,.11-.64,.13-.41-.08,.1,0-.65-.11-1.53,.06-2.21,.03s.87,.18,.14,.02c-.18-.04-.37-.07-.55-.11-.38-.09-.75-.2-1.11-.32-.06-.02-.47-.22-.51-.19,.13-.1,.8,.38,.31,.13-.11-.06-.23-.11-.34-.16-.48-.23-.94-.49-1.39-.77-.2-.12-.39-.25-.58-.38-.11-.08-.22-.16-.33-.23-.39-.24,.32,.22,.29,.23-.24,.02-.98-.85-1.15-1.03-.24-.25-.71-.6-.82-.93,.18,.51,.39,.56,.18,.22-.05-.09-.12-.17-.17-.25-.15-.22-.28-.44-.41-.67-.14-.24-.55-.79-.54-1.08-.02,.29,.27,.75,.12,.27-.02-.08-.06-.15-.08-.23-.08-.25-.17-.5-.24-.76-.12-.42-.21-.84-.29-1.27-.02-.12-.04-.25-.06-.37-.07-.36,.19,.19,.06,.42,.07-.13-.06-.61-.07-.77-.07-1-.05-2,.04-3,.02-.24,.06-.48,.08-.71,.04-.58-.13,.79-.03,.22,.03-.15,.04-.29,.07-.44,.09-.55,.2-1.1,.32-1.65,.53-2.42,1.34-4.79,2.26-7.09,.11-.28,.23-.57,.35-.85-.36,.88,.05-.11,.14-.32,.31-.7,.63-1.4,.95-2.1,.6-1.27,1.23-2.53,1.88-3.77,1.46-2.8,3.03-5.53,4.65-8.24,7-11.65,15-22.65,22.43-34.02,3.23-4.95,6.4-9.97,9.1-15.23,2.2-4.29,4.24-8.83,4.82-13.66,.43-3.61-.41-7.46-3.27-9.91-2.59-2.21-5.92-2.67-9.08-1.45-3.58,1.38-6.57,3.97-9.26,6.65-3.59,3.59-6.76,7.59-9.83,11.62-7.76,10.19-14.75,20.96-21.85,31.6-3.8,5.69-7.61,11.38-11.52,17-1.91,2.75-3.85,5.48-5.83,8.19-.96,1.31-1.92,2.61-2.9,3.9-.46,.6-.91,1.2-1.37,1.8-.11,.14-.43,.55,.01-.01-.13,.17-.26,.34-.39,.5-.26,.33-.52,.67-.78,1-3.45,4.38-7.06,8.67-11.03,12.58-1.69,1.66-3.45,3.22-5.3,4.69,.82-.65,.08-.07-.1,.07-.19,.14-.39,.29-.58,.43-.45,.33-.92,.64-1.39,.94-.8,.52-1.63,1-2.49,1.43-.36,.18-.74,.34-1.11,.52-.28,.14,.78-.29,.06-.03-.23,.08-.47,.18-.7,.26-.75,.25-1.5,.41-2.28,.58-.66,.14,.88-.06,.13-.02-.19,.01-.37,.03-.56,.04-.37,.02-.74,.02-1.11,0-.16,0-.33-.05-.5-.04-.11,0,.88,.18,.11,0-.36-.08-.71-.15-1.06-.26-.16-.05-.31-.11-.47-.16-.75-.23,.56,.3,.11,.05-.35-.19-.71-.35-1.05-.55-.31-.19-.59-.41-.89-.6-.41-.26,.6,.54,.26,.2-.08-.08-.18-.14-.26-.22-.17-.16-.35-.31-.51-.47-.3-.29-.59-.59-.87-.9-.15-.17-.29-.34-.44-.51-.38-.43,0,.16,.14,.19-.07-.02-.23-.3-.27-.37-.52-.77-.96-1.55-1.37-2.38-.31-.63,.26,.75-.04-.1-.07-.2-.14-.39-.21-.59-.14-.44-.27-.88-.37-1.33-.05-.23-.1-.45-.14-.68-.02-.1-.03-.21-.05-.31-.1-.53,.18,.01,.04,.29,.14-.26-.1-1.09-.11-1.42-.04-.99,.03-1.97,.12-2.95,.07-.78-.13,.75,0-.03,.04-.23,.07-.47,.12-.7,.1-.57,.23-1.14,.37-1.71,.27-1.09,.61-2.17,.99-3.23,.18-.51,.38-1.01,.58-1.51,.06-.15,.13-.3,.19-.46-.28,.77-.19,.43-.11,.26,.15-.33,.29-.67,.44-1,1.09-2.4,2.36-4.71,3.72-6.96,1.54-2.54,3.2-4.99,4.93-7.4,.93-1.28,1.87-2.55,2.84-3.81,.09-.12,.18-.23,.27-.35-.47,.62-.01,.01,.07-.09,.23-.29,.46-.59,.69-.88,.56-.71,1.12-1.42,1.69-2.12,4.34-5.37,8.91-10.56,13.55-15.68,9.48-10.45,19.31-20.57,28.61-31.18,4.09-4.67,8.07-9.44,11.71-14.47,2.9-4.02,5.57-8.22,7.42-12.84,1.4-3.48,2.24-7.45,1.22-11.15s-4.01-7.11-7.87-7.81c-4.44-.81-8.72,1.43-12.22,3.96-4.72,3.41-8.86,7.56-12.83,11.79-9.33,9.91-17.81,20.62-27.6,30.08-2.16,2.09-4.4,4.09-6.75,5.96-.62,.5,.36-.26-.29,.22-.25,.18-.49,.37-.74,.55-.53,.39-1.07,.76-1.61,1.13-1.02,.68-2.06,1.31-3.15,1.88-.5,.26-1.02,.49-1.53,.73-.42,.2,.29-.12,.3-.13-.14,.05-.27,.11-.41,.16-.27,.1-.54,.2-.81,.29-.48,.16-.97,.3-1.46,.41-.22,.05-.43,.09-.65,.13-.93,.19,.61-.03-.1,.02-.44,.03-.88,.06-1.32,.06-.23,0-.45-.03-.68-.04-.69-.01,.81,.19-.05,0-.4-.09-.79-.17-1.18-.3-.14-.05-.93-.33-.33-.11s-.27-.14-.43-.23c-.38-.21-.73-.45-1.09-.69-.61-.4,.51,.47,0,0-.19-.18-.4-.34-.58-.52-.29-.27-.54-.58-.81-.86-.46-.48,.42,.65,.08,.1-.11-.18-.24-.34-.34-.52s-.2-.35-.29-.53c-.37-.68,.13,.15,.06,.17-.05,.01-.3-.93-.32-1.02-.04-.17-.04-.37-.1-.52,.14,.38,.05,.78,.04,.17,0-.37-.03-.73,0-1.09,0-.13,.08-.38,.05-.51,.19,.65-.13,.69,0,.13,.09-.41,.18-.81,.3-1.21,.11-.37,.25-.72,.38-1.08,.23-.64-.36,.74,.03-.05,.11-.22,.21-.45,.32-.67,.44-.87,.95-1.71,1.49-2.52,.27-.4,.54-.79,.83-1.18,.15-.2,.3-.4,.45-.6,.34-.47-.47,.58-.1,.13,.11-.14,.22-.28,.34-.42,3.32-4.13,7.24-7.76,11.22-11.24,4.75-4.16,9.69-8.09,14.64-12,9.85-7.78,20.04-15.33,28.92-24.23,3.39-3.4,6.77-7.12,9.04-11.39,1.84-3.47,3.03-7.64,1.65-11.49-1.59-4.42-5.68-7.78-10.4-8.13-5.11-.38-10.03,2.73-13.92,5.69-10.44,7.95-18.56,18.43-28.4,27.05-.54,.48-1.09,.95-1.65,1.41-.25,.2-.49,.4-.74,.6-.15,.12-.29,.23-.44,.35,.68-.54,.16-.12,.02-.02-1.01,.75-2.03,1.48-3.11,2.12-.47,.28-.94,.54-1.42,.79-.24,.12-.49,.23-.73,.35-.67,.32,.69-.23-.19,.07-.42,.14-.83,.29-1.26,.39-.24,.06-.5,.08-.73,.15-.43,.14,.61-.35,.44-.05-.03,.05-.41,.04-.47,.04-.38,0-.77-.04-1.15-.02-.48,.02,.8,.21,.35,.04-.08-.03-.19-.03-.27-.06-.22-.06-.47-.17-.7-.21-.28-.05,.75,.42,.09,.03-.16-.1-.34-.19-.5-.29-.1-.06-.19-.15-.29-.2-.4-.19,.38,.26,.32,.25-.17-.02-.48-.42-.61-.55-.17-.17-.33-.36-.49-.54-.49-.53,.36,.57-.05-.07-.36-.56-.72-1.1-1.01-1.69-.07-.15-.14-.3-.21-.45,.38,.75,.15,.41,.09,.19-.09-.27-.19-.54-.27-.82-.07-.24-.11-.49-.17-.74-.17-.72,0,.75-.02-.22,0-.32-.16-1.32,.05-1.57,.03-.04-.19,.85-.04,.37,.04-.13,.05-.28,.08-.42,.06-.28,.14-.56,.23-.84,.08-.23,.17-.46,.25-.69-.33,.98-.02,.08,.1-.17,.27-.54,.58-1.05,.92-1.55,.15-.23,.32-.44,.48-.66-.55,.79,0,0,.16-.18,.45-.54,.93-1.06,1.43-1.56,.97-.97,2-1.87,3.06-2.74,.16-.13,1.12-.88,.42-.34,.27-.21,.55-.42,.82-.62,.62-.46,1.25-.91,1.89-1.36,1.32-.92,2.66-1.81,4.01-2.68,2.77-1.79,5.59-3.51,8.37-5.29,5.04-3.22,10.39-6.62,14.06-11.44,3.42-4.5,3.88-10.55-.07-14.95-5.09-5.67-12.97-.52-17.91,2.57-3.49,2.19-6.96,4.43-10.68,6.24s-7.69,3.04-11.64,3.07-3.87,6.03,0,6h0Z"/></svg>